<svg width="24" height="24" viewBox="0 0 24 24" fill="none" xmlns="http://www.w3.org/2000/svg">
<path d="M23 12C23 18.08 18.08 23 12 23C5.92 23 1 18.08 1 12C1 5.92 5.92 1 12 1C18.08 1 23 5.92 23 12Z" fill="#8F9FF8"/>
<path d="M12 12C14.49 12 16.91 12.28 19.25 12.8C19.25 12.83 19.25 12.86 19.25 12.89C19.25 16.82 16 20 12 20C8 20 4.75 16.82 4.75 12.89C4.75 12.86 4.75 12.83 4.75 12.8C7.09 12.28 9.51 12 12 12ZM6.75 9.09C7.39 9.09 7.96 9.4 8.32 9.87C8.58 9.53 8.75 9.1 8.75 8.64C8.75 7.53 7.85 6.62 6.75 6.62C5.65 6.62 4.75 7.52 4.75 8.64C4.75 9.11 4.91 9.53 5.18 9.87C5.54 9.4 6.11 9.09 6.75 9.09ZM17.25 9.09C17.89 9.09 18.46 9.4 18.82 9.87C19.08 9.53 19.25 9.1 19.25 8.64C19.25 7.53 18.35 6.62 17.25 6.62C16.15 6.62 15.25 7.52 15.25 8.64C15.25 9.11 15.41 9.53 15.68 9.87C16.04 9.4 16.61 9.09 17.25 9.09Z" fill="#021563"/>
</svg>
